<?xml version='1.0' encoding='UTF-8'?>
<svg viewBox="0 -2 32 32" xmlns="http://www.w3.org/2000/svg" xmlns:xlink="http://www.w3.org/1999/xlink">
  <g id="Layer_1" transform="translate(0, -2)" style="enable-background:new 0 0 32 32">
    <g id="Headphone">
      <path d="M16, 4C9.4, 4 4, 9.4 4, 16L4, 18L4, 22L4, 24C4, 26.2 5.8, 28 8, 28L12, 28L12, 18L6, 18L6, 16C6, 10.5 10.5, 6 16, 6C21.5, 6 26, 10.5 26, 16L26, 18L20, 18L20, 28L24, 28C26.2, 28 28, 26.2 28, 24L28, 22L28, 18L28, 16C28, 9.4 22.6, 4 16, 4z" fill="#727272" class="Black" />
    </g>
  </g>
  <g id="Layer_1" transform="translate(0, 14)" style="enable-background:new 0 0 16 16">
    <g id="Arrow1Down">
      <polygon points="6,0 10,0 10,8 16,8 8,16 0,8 6,8  " fill="#1177D7" class="Blue" />
    </g>
  </g>
  <g id="Layer_1" transform="translate(16, -2)" style="enable-background:new 0 0 16 16">
    <g id="Arrow5URightUp_2_">
      <path d="M10, 15C10, 15.6 9.6, 16 9, 16L0, 16L0, 14L8, 14L8, 8L3, 8L9, 2L15, 8L10, 8L10, 15z" fill="#1177D7" class="Blue" />
    </g>
  </g>
</svg>