<?xml version="1.0" standalone="no"?>
<!DOCTYPE svg PUBLIC "-//W3C//DTD SVG 20010904//EN"
 "http://www.w3.org/TR/2001/REC-SVG-20010904/DTD/svg10.dtd">
<svg version="1.0" xmlns="http://www.w3.org/2000/svg"
 width="32.000000pt" height="32.000000pt" viewBox="0 0 32.000000 32.000000"
 preserveAspectRatio="xMidYMid meet">
<metadata>
Created by potrace 1.16, written by Peter Selinger 2001-2019
</metadata>
<g transform="translate(0.000000,32.000000) scale(0.100000,-0.100000)"
fill="#000000" stroke="none">
<path d="M105 311 c-6 -5 -23 -11 -39 -13 -41 -4 -43 -23 -7 -57 l32 -30 -27
-3 c-39 -4 -40 -24 -5 -57 l32 -30 -27 -3 c-52 -6 -39 -32 44 -95 49 -37 78
-29 159 45 30 27 26 46 -11 50 l-27 3 32 30 c35 33 34 53 -5 57 l-27 3 32 30
c36 34 34 53 -7 57 -16 2 -33 8 -38 13 -6 5 -31 9 -56 9 -25 0 -50 -4 -55 -9z
m26 -25 c-28 -29 -28 -32 -8 -54 15 -16 15 -21 3 -31 -27 -23 0 -71 40 -71 39
0 53 39 23 66 -19 17 -19 18 3 41 28 29 27 26 5 51 -18 20 -18 20 0 18 16 -3
18 -15 18 -130 0 -102 -3 -130 -15 -140 -16 -13 -67 -16 -85 -4 -12 7 -14 246
-3 264 4 6 14 11 23 11 13 0 12 -4 -4 -21z"/>
</g>
</svg>
